# xmcd
#
# Track frame offsets:
# 150
# 12996
# 26137
# 39611
# 53785
# 66834
# 79697
# 92539
# 104494
# 115381
# 125574
# 136592
# 147868
# 158321
# 169075
# 180054
# 191928
# 200434
# 209352
# 221879
# 233695
# 247355
# 260175
# 272593
# 286027
# 297221
# 309068
# 320733
#
# Disc length: 4447 seconds
#
#
# Revision: 0
# Processed by: cddbd v1.5.2PL0 Copyright (c) Steve Scherf et al.
# Submitted via: FreeRIP 2.944 
#
DISCID=9b115d1c
DTITLE=Various Artist - Rar West Coast Jump 'n' Jive 1946-1950
DYEAR=1900
DGENRE=Jump Blues
TTITLE0=Joymake'r Boogie (Soldier's Hop)
TTITLE1=Advice To A Fool
TTITLE2=That Other Woman's Gotta Go
TTITLE3=Rampart Street Jump
TTITLE4=Stranger
TTITLE5=Texas Man
TTITLE6=Boogieology
TTITLE7=Midnight Boogie
TTITLE8=Satisfied
TTITLE9=Working With My Baby
TTITLE10=If You Ever Had The Blues
TTITLE11=Waiting And Drinkin'
TTITLE12=Angel City Blues
TTITLE13=Safronia B.
TTITLE14=Baby You're Tops With Me
TTITLE15=Choo Choo's Bringing My Baby Home
TTITLE16=Lizz Lou: Part 1
TTITLE17=Lizz Lou: Part 2
TTITLE18=Stinkin' From Drinkin'
TTITLE19=Look Out For Tomorrw Today
TTITLE20=Stinkin' Drunk
TTITLE21=I Could Make You Love Me
TTITLE22=Big Fat Mama
TTITLE23=Big Legs
TTITLE24=Fatso
TTITLE25=Rock Bottom
TTITLE26=Punkin' Head Woman
TTITLE27=I Want A Little Girl
EXTD=
EXTT0=
EXTT1=
EXTT2=
EXTT3=
EXTT4=
EXTT5=
EXTT6=
EXTT7=
EXTT8=
EXTT9=
EXTT10=
EXTT11=
EXTT12=
EXTT13=
EXTT14=
EXTT15=
EXTT16=
EXTT17=
EXTT18=
EXTT19=
EXTT20=
EXTT21=
EXTT22=
EXTT23=
EXTT24=
EXTT25=
EXTT26=
EXTT27=
PLAYORDER=
